<svg width="810" height="1024" viewBox="0 0 810 1024" fill="none" xmlns="http://www.w3.org/2000/svg">
<g clip-path="url(#clip0_409_28)">
<rect width="810" height="1024" fill="white"/>
<rect width="810" height="1024" fill="#453C62"/>
<path fill-rule="evenodd" clip-rule="evenodd" d="M714.183 -109.329C780.639 -121.256 839.52 -67.0771 886.718 -18.7963C933.269 28.8227 977.63 87.443 971.349 153.739C965.371 216.846 909.486 261.079 856.857 296.412C814.913 324.571 764.568 322.713 714.183 326.387C657.06 330.551 595.863 351.88 549.071 318.851C497.195 282.233 459.678 216.458 469.595 153.739C478.957 94.533 553.343 77.6116 594.157 33.713C638.216 -13.6745 650.496 -97.8978 714.183 -109.329Z" fill="#9C6FE4"/>
<path fill-rule="evenodd" clip-rule="evenodd" d="M629.006 739.596C745.471 687.001 847.35 592.317 974.005 609.311C1122.63 629.254 1277.18 700.659 1343.01 835.4C1408.57 969.608 1351.14 1125.75 1293.66 1263.61C1241.22 1389.36 1160.91 1501.87 1039.42 1563.52C917.024 1625.63 779.337 1618.37 644.441 1593.06C479.591 1562.12 278.62 1552.84 198.156 1405.67C116.895 1257.05 186.338 1065.7 278.336 923.471C352.857 808.265 503.959 796.067 629.006 739.596Z" fill="#9C6FE4"/>
<path fill-rule="evenodd" clip-rule="evenodd" d="M798.811 174.501C827.858 175.35 859.738 167.881 881.758 186.845C904.719 206.619 912.208 239.613 909.458 269.791C906.923 297.614 888.618 320.135 867.904 338.883C848.442 356.499 825.001 368.163 798.811 369.94C770.5 371.861 740.121 368.603 719.661 348.941C698.919 329.006 696.115 298.52 694.604 269.791C692.976 238.844 688.002 202.765 710.872 181.852C733.439 161.216 768.245 173.608 798.811 174.501Z" fill="#9C6FE4" fill-opacity="0.6"/>
<path fill-rule="evenodd" clip-rule="evenodd" d="M359.307 -27.9416C386.222 -50.5969 421.623 -55.6072 456.797 -56.2766C488.998 -56.8894 522.821 -53.4652 546.377 -31.5015C569.085 -10.3285 568.217 23.1534 574.577 53.5425C582.477 91.2891 606.691 130.757 587.316 164.101C566.574 199.8 521.355 214.04 480.12 216.108C440.251 218.109 404.28 199.102 372.554 174.875C338.751 149.062 300.992 119.646 298.22 77.2049C295.474 35.1562 327.069 -0.805626 359.307 -27.9416Z" fill="#9C6FE4" fill-opacity="0.6"/>
<path fill-rule="evenodd" clip-rule="evenodd" d="M271.307 807.058C298.222 784.403 333.623 779.393 368.797 778.723C400.998 778.11 434.821 781.535 458.377 803.498C481.085 824.671 480.217 858.153 486.577 888.542C494.477 926.289 518.691 965.757 499.316 999.101C478.574 1034.8 433.355 1049.04 392.12 1051.11C352.251 1053.11 316.28 1034.1 284.554 1009.87C250.751 984.062 212.992 954.646 210.22 912.205C207.474 870.156 239.069 834.194 271.307 807.058Z" fill="#9C6FE4" fill-opacity="0.6"/>
</g>
<defs>
<clipPath id="clip0_409_28">
<rect width="810" height="1024" fill="white"/>
</clipPath>
</defs>
</svg>
